<?xml version="1.0" encoding="UTF-8" standalone="no"?>
<!-- Created with Inkscape (http://www.inkscape.org/) -->

<svg
   width="210mm"
   height="297mm"
   viewBox="0 0 210 297"
   version="1.1"
   id="svg5"
   inkscape:version="1.3.2 (091e20e, 2023-11-25, custom)"
   xml:space="preserve"
   sodipodi:docname="logo.svg"
   xmlns:inkscape="http://www.inkscape.org/namespaces/inkscape"
   xmlns:sodipodi="http://sodipodi.sourceforge.net/DTD/sodipodi-0.dtd"
   xmlns="http://www.w3.org/2000/svg"
   xmlns:svg="http://www.w3.org/2000/svg"><sodipodi:namedview
     id="namedview7"
     pagecolor="#ffffff"
     bordercolor="#eeeeee"
     borderopacity="1"
     inkscape:showpageshadow="0"
     inkscape:pageopacity="0"
     inkscape:pagecheckerboard="0"
     inkscape:deskcolor="#505050"
     inkscape:document-units="mm"
     showgrid="false"
     inkscape:zoom="0.3140192"
     inkscape:cx="281.8299"
     inkscape:cy="1198.9713"
     inkscape:window-width="1858"
     inkscape:window-height="1057"
     inkscape:window-x="54"
     inkscape:window-y="-8"
     inkscape:window-maximized="1"
     inkscape:current-layer="layer1" /><defs
     id="defs2" /><g
     inkscape:label="Layer 1"
     inkscape:groupmode="layer"
     id="layer1"><path
       style="fill:#000000"
       d="m -3.7828939,377.46901 c -3.817842,-0.18823 -8.5389421,-0.84241 -13.1905421,-1.82777 -24.308582,-5.14931 -44.945269,-21.40442 -55.723039,-43.89192 -2.94963,-6.15432 -5.144674,-12.9203 -6.613491,-20.38537 -1.884029,-9.57534 -1.671769,-21.79254 0.546485,-31.45436 1.698393,-7.39752 3.590031,-12.82159 6.526781,-18.71485 9.58686,-19.23822 26.009149,-33.62032 46.223594,-40.48112 5.32908,-1.80869 12.27749,-3.3531 18.0793401,-4.01845 3.258522,-0.37368 13.227322,-0.31681 16.603482,0.0947 26.9042099,3.2795 49.3363899,18.30593 62.1345799,41.62151 4.79996,8.7445 8.05648,19.08564 9.35524,29.70768 0.41209,3.37035 0.56497,11.01728 0.28981,14.49575 -1.19985,15.16787 -6.46216,29.62865 -15.09138,41.47094 -2.96625,4.07072 -4.61671,5.9927 -8.34355,9.71611 -5.90077,5.89536 -11.09026,9.81802 -18.16564,13.73117 -12.60683,6.97241 -28.34469,10.64035 -42.6316699,9.93596 z m -13.4230521,-4.38332 c -1.92293,-0.9534 -6.03066,-3.54679 -6.59336,-4.16268 -0.1522,-0.16658 -1.14841,-1.0636 -2.2138,-1.99338 -2.07214,-1.80837 -3.533413,-3.2509 -4.142805,-4.08967 -0.207364,-0.28542 -0.843003,-1.12976 -1.412532,-1.87632 -1.454928,-1.90718 -2.213381,-3.16457 -3.808842,-6.31444 -1.014861,-2.0036 -2.678353,-6.92844 -2.999171,-8.87917 -0.08344,-0.50733 -0.240151,-1.46203 -0.348257,-2.12155 -0.108105,-0.65953 -0.235204,-1.38924 -0.282441,-1.62157 -0.04724,-0.23234 -0.128516,-1.23467 -0.180618,-2.2274 -0.0521,-0.99274 -0.150117,-1.94931 -0.21781,-2.12571 -0.299731,-0.78108 0.77861,-8.97245 1.516614,-11.52061 1.71155,-5.90958 4.746666,-11.638 8.370688,-15.79866 1.750654,-2.00989 2.185364,-2.44813 3.880214,-3.91178 4.66823,-4.03141 8.95303,-6.45705 14.43351,-8.17085 4.0339501,-1.26146 6.0823301,-1.62622 9.3331521,-1.66196 5.44666,-0.0599 7.90255,-0.41876 12.0169799,-1.75605 3.68349,-1.19723 4.74263,-1.6738 8.20949,-3.69395 3.02588,-1.76319 6.21448,-4.36134 8.59966,-7.00724 1.44214,-1.59978 4.59088,-5.88675 4.59088,-6.25043 0,-0.056 0.33207,-0.61556 0.73793,-1.24351 0.40587,-0.62795 0.73794,-1.21694 0.73794,-1.30887 0,-0.0919 0.31994,-0.84696 0.71098,-1.67786 2.05031,-4.35661 3.38638,-10.6867 3.41444,-16.17713 0.0227,-4.43353 -1.0582,-10.29237 -2.58332,-14.00303 -0.35848,-0.87218 -0.77036,-1.902 -0.91531,-2.2885 -0.7394,-1.97166 -3.32303,-6.21342 -4.96415,-8.15007 -1.68385,-1.98708 -4.41154,-4.72641 -5.53249,-5.55608 -0.60879,-0.45061 -1.72953,-1.42569 -2.49052,-2.16685 -0.89006,-0.86687 -2.10751,-1.77835 -3.41293,-2.5552 -6.73841,-4.01001 -9.8318099,-4.74554 -19.0017599,-4.51811 -8.014172,0.19877 -15.3203521,1.45392 -22.8024121,3.91729 -9.447516,3.11048 -17.677468,7.63559 -25.624383,14.08918 -2.320803,1.88469 -8.28817,7.78645 -10.088841,9.97791 -7.267491,8.84472 -12.406916,18.47643 -15.454239,28.96253 -0.843597,2.90289 -2.043246,8.87557 -2.498302,12.43827 -1.35904,10.64011 -0.138487,22.90283 3.309224,33.2473 1.725093,5.17594 2.353721,6.74939 4.264872,10.67495 3.872962,7.95516 8.697552,14.71424 15.018425,21.0403 10.097816,10.10609 22.445254,17.08406 36.718734,20.75105 3.78693,0.9729 4.1088,0.92188 1.70456,-0.27015 z m 8.7989101,-98.22916 c -1.02129,-0.46388 -2.0489801,-1.39969 -2.5354501,-2.30879 l -0.40422,-0.7554 -0.0501,-16.12887 c -0.0569,-18.32794 -0.13629,-17.27824 1.4249201,-18.83945 1.49541,-1.49542 1.41382,-1.48527 11.469302,-1.42622 l 8.7508499,0.0514 0.91718,0.47193 c 1.06446,0.54772 2.16698,1.88997 2.47651,3.01502 0.14898,0.54148 0.19285,5.31286 0.15453,16.80618 -0.0498,14.94277 -0.076,16.09121 -0.37981,16.6471 -0.57008,1.04318 -1.487,1.93848 -2.4396,2.38208 l -0.92376,0.43018 -8.8551899,-0.002 c -8.213202,-0.002 -8.909562,-0.0269 -9.605182,-0.3429 z m 17.220792,-19.20646 c 0.0285,-7.96505 0.006,-14.6687 -0.0496,-14.897 l -0.10144,-0.41509 h -7.56029 -7.560332 v 14.94517 14.94518 l 7.609932,-0.0482 7.60993,-0.0482 z m 2.5059099,102.13371 c 0.33483,-0.1399 0.78876,-0.48316 1.00873,-0.76281 0.39546,-0.50275 0.39991,-0.59232 0.39722,-8.00124 -0.002,-5.57967 -0.0609,-7.60603 -0.2306,-7.93623 -0.83045,-1.61592 -3.6130399,-1.71801 -4.5585099,-0.16725 -0.3521,0.57751 -0.37235,0.91902 -0.373,6.28888 l -6.9e-4,5.67821 -2.4444,-0.0515 -2.4444,-0.0515 -0.0923,-17.43365 -0.0922,-17.43365 -5.90346,-0.0551 c -7.1748521,-0.067 -7.6603021,-0.0228 -8.5345521,0.77844 -0.56493,0.51772 -0.6643,0.73585 -0.72824,1.59847 -0.0932,1.25721 0.33551,2.16213 1.23778,2.61287 0.55659,0.27805 1.21211,0.3226 4.7504401,0.32284 l 4.104752,2.9e-4 v 14.85088 14.85089 l -4.196992,0.003 c -4.5174001,0.003 -4.7805501,0.05 -5.4705901,0.97934 -0.2893,0.38963 -0.38675,0.79293 -0.38675,1.6007 0,1.28024 0.43191,2.00222 1.40091,2.34175 0.98134,0.34385 21.731312,0.33157 22.556842,-0.0134 z"
       id="path1" /></g></svg>
